<svg width="50" height="51" viewBox="0 0 50 51" fill="none" xmlns="http://www.w3.org/2000/svg">
<path d="M49.3614 31.5427L44.8755 29.0201C45.3283 26.6411 45.3283 24.2005 44.8755 21.8215L49.3614 19.2989C49.8773 19.0118 50.109 18.417 49.9405 17.8633C48.7717 14.2127 46.7814 10.9108 44.1805 8.16261C43.7803 7.74218 43.1274 7.63963 42.622 7.92676L38.1361 10.4493C36.2512 8.87016 34.0819 7.64989 31.7337 6.85004V1.81513C31.7337 1.24088 31.323 0.738414 30.7438 0.615361C26.8792 -0.225501 22.9198 -0.184483 19.2447 0.615361C18.6656 0.738414 18.2549 1.24088 18.2549 1.81513V6.8603C15.9172 7.6704 13.7479 8.89067 11.8525 10.4596L7.37711 7.93701C6.86113 7.64989 6.21878 7.74218 5.81863 8.17286C3.21765 10.9108 1.22742 14.2127 0.058561 17.8735C-0.120454 18.4273 0.121743 19.022 0.637727 19.3092L5.12363 21.8317C4.67083 24.2108 4.67083 26.6513 5.12363 29.0303L0.637727 31.5529C0.121743 31.84 -0.109924 32.4348 0.058561 32.9885C1.22742 36.6391 3.21765 39.941 5.81863 42.6892C6.21878 43.1096 6.87166 43.2122 7.37711 42.9251L11.863 40.4025C13.7479 41.9817 15.9172 43.2019 18.2654 44.0018V49.0469C18.2654 49.6212 18.6761 50.1237 19.2553 50.2467C23.1199 51.0876 27.0793 51.0466 30.7543 50.2467C31.3335 50.1237 31.7442 49.6212 31.7442 49.0469V44.0018C34.0819 43.1917 36.2512 41.9714 38.1466 40.4025L42.6325 42.9251C43.1485 43.2122 43.7908 43.1199 44.191 42.6892C46.792 39.9513 48.7822 36.6494 49.9511 32.9885C50.109 32.4245 49.8773 31.8298 49.3614 31.5427ZM24.9943 33.6243C20.3504 33.6243 16.5701 29.943 16.5701 25.4208C16.5701 20.8986 20.3504 17.2173 24.9943 17.2173C29.6381 17.2173 33.4185 20.8986 33.4185 25.4208C33.4185 29.943 29.6381 33.6243 24.9943 33.6243Z" fill="#2B2A2A"/>
</svg>
