<svg width="143" height="24" viewBox="0 0 143 24" fill="none" xmlns="http://www.w3.org/2000/svg">
<path d="M142.884 3.31556H135.692V23.0006H132.701V3.31556H125.493V0.789062H142.884V3.31556Z" fill="black"/>
<path d="M122.751 18.4106C122.916 18.4106 123.061 18.4777 123.185 18.6121L124.378 19.8986C123.469 20.9526 122.363 21.7741 121.061 22.3631C119.77 22.9521 118.204 23.2466 116.365 23.2466C114.774 23.2466 113.327 22.9727 112.025 22.4251C110.723 21.8671 109.612 21.0921 108.692 20.1001C107.773 19.0977 107.06 17.8991 106.553 16.5041C106.047 15.1091 105.794 13.5746 105.794 11.9006C105.794 10.2266 106.057 8.69206 106.584 7.29706C107.111 5.90206 107.85 4.7034 108.801 3.70106C109.762 2.69873 110.909 1.92373 112.242 1.37606C113.575 0.818063 115.047 0.539062 116.659 0.539062C118.24 0.539062 119.635 0.792229 120.844 1.29856C122.053 1.8049 123.118 2.49206 124.037 3.36006L123.045 4.73956C122.983 4.8429 122.901 4.93073 122.797 5.00306C122.704 5.06506 122.575 5.09606 122.41 5.09606C122.224 5.09606 121.997 4.9979 121.728 4.80156C121.459 4.5949 121.108 4.36756 120.674 4.11956C120.24 3.87156 119.697 3.6494 119.046 3.45306C118.395 3.2464 117.595 3.14306 116.644 3.14306C115.497 3.14306 114.448 3.34456 113.497 3.74756C112.547 4.14023 111.725 4.71373 111.033 5.46806C110.351 6.2224 109.819 7.14206 109.436 8.22706C109.054 9.31206 108.863 10.5366 108.863 11.9006C108.863 13.2852 109.059 14.5201 109.452 15.6051C109.855 16.6901 110.397 17.6097 111.079 18.3641C111.772 19.1081 112.583 19.6764 113.513 20.0691C114.453 20.4617 115.466 20.6581 116.551 20.6581C117.212 20.6581 117.806 20.6219 118.333 20.5496C118.871 20.4669 119.362 20.3429 119.806 20.1776C120.261 20.0122 120.679 19.8056 121.061 19.5576C121.454 19.2992 121.842 18.9944 122.224 18.6431C122.4 18.4881 122.575 18.4106 122.751 18.4106Z" fill="black"/>
<path d="M98.5488 14.7546L95.0613 5.71806C94.9579 5.4494 94.8494 5.1394 94.7358 4.78806C94.6221 4.4264 94.5136 4.04406 94.4103 3.64106C94.1933 4.47806 93.9711 5.17556 93.7438 5.73356L90.2563 14.7546H98.5488ZM104.811 23.0006H102.486C102.217 23.0006 102 22.9334 101.835 22.7991C101.669 22.6647 101.545 22.4942 101.463 22.2876L99.3858 16.9246H89.4193L87.3423 22.2876C87.2803 22.4736 87.1614 22.6389 86.9858 22.7836C86.8101 22.9282 86.5931 23.0006 86.3348 23.0006H84.0098L92.8913 0.789062H95.9293L104.811 23.0006Z" fill="black"/>
<path d="M85.6371 3.31556H78.4451V23.0006H75.4536V3.31556H68.2461V0.789062H85.6371V3.31556Z" fill="black"/>
<path d="M64.9398 0.789062V23.0006H63.4363C63.1987 23.0006 62.9972 22.9592 62.8318 22.8766C62.6768 22.7939 62.5218 22.6544 62.3668 22.4581L49.5173 5.71806C49.538 5.9764 49.5535 6.22956 49.5638 6.47756C49.5742 6.72556 49.5793 6.95806 49.5793 7.17506V23.0006H46.9443V0.789062H48.4943C48.6287 0.789062 48.7423 0.799395 48.8353 0.820062C48.9283 0.830396 49.011 0.856229 49.0833 0.897562C49.1557 0.928562 49.228 0.980229 49.3003 1.05256C49.3727 1.11456 49.4502 1.19723 49.5328 1.30056L62.3823 18.0251C62.3617 17.7564 62.341 17.4981 62.3203 17.2501C62.31 16.9917 62.3048 16.7489 62.3048 16.5216V0.789062H64.9398Z" fill="black"/>
<path d="M42.6417 11.9006C42.6417 13.5642 42.3782 15.0936 41.8512 16.4886C41.3242 17.8732 40.5802 19.0667 39.6192 20.0691C38.6582 21.0714 37.5009 21.8516 36.1472 22.4096C34.8039 22.9572 33.3159 23.2311 31.6832 23.2311C30.0506 23.2311 28.5626 22.9572 27.2192 22.4096C25.8759 21.8516 24.7237 21.0714 23.7627 20.0691C22.8017 19.0667 22.0577 17.8732 21.5307 16.4886C21.0037 15.0936 20.7402 13.5642 20.7402 11.9006C20.7402 10.2369 21.0037 8.71273 21.5307 7.32806C22.0577 5.93306 22.8017 4.7344 23.7627 3.73206C24.7237 2.7194 25.8759 1.93406 27.2192 1.37606C28.5626 0.818063 30.0506 0.539062 31.6832 0.539062C33.3159 0.539062 34.8039 0.818063 36.1472 1.37606C37.5009 1.93406 38.6582 2.7194 39.6192 3.73206C40.5802 4.7344 41.3242 5.93306 41.8512 7.32806C42.3782 8.71273 42.6417 10.2369 42.6417 11.9006ZM39.5572 11.9006C39.5572 10.5366 39.3712 9.31206 38.9992 8.22706C38.6272 7.14206 38.1002 6.22756 37.4182 5.48356C36.7362 4.72923 35.9096 4.15056 34.9382 3.74756C33.9669 3.34456 32.8819 3.14306 31.6832 3.14306C30.4949 3.14306 29.4151 3.34456 28.4437 3.74756C27.4724 4.15056 26.6406 4.72923 25.9482 5.48356C25.2662 6.22756 24.7392 7.14206 24.3672 8.22706C23.9952 9.31206 23.8092 10.5366 23.8092 11.9006C23.8092 13.2646 23.9952 14.4891 24.3672 15.5741C24.7392 16.6487 25.2662 17.5632 25.9482 18.3176C26.6406 19.0616 27.4724 19.6351 28.4437 20.0381C29.4151 20.4307 30.4949 20.6271 31.6832 20.6271C32.8819 20.6271 33.9669 20.4307 34.9382 20.0381C35.9096 19.6351 36.7362 19.0616 37.4182 18.3176C38.1002 17.5632 38.6272 16.6487 38.9992 15.5741C39.3712 14.4891 39.5572 13.2646 39.5572 11.9006Z" fill="black"/>
<path d="M17.4297 18.4106C17.595 18.4106 17.7397 18.4777 17.8637 18.6121L19.0572 19.8986C18.1478 20.9526 17.0422 21.7741 15.7402 22.3631C14.4485 22.9521 12.883 23.2466 11.0437 23.2466C9.45232 23.2466 8.00566 22.9727 6.70366 22.4251C5.40166 21.8671 4.29082 21.0921 3.37116 20.1001C2.45149 19.0977 1.73849 17.8991 1.23216 16.5041C0.725823 15.1091 0.472656 13.5746 0.472656 11.9006C0.472656 10.2266 0.736156 8.69206 1.26316 7.29706C1.79016 5.90206 2.52899 4.7034 3.47966 3.70106C4.44066 2.69873 5.58766 1.92373 6.92066 1.37606C8.25366 0.818063 9.72616 0.539062 11.3382 0.539062C12.9192 0.539062 14.3142 0.792229 15.5232 1.29856C16.7322 1.8049 17.7965 2.49206 18.7162 3.36006L17.7242 4.73956C17.6622 4.8429 17.5795 4.93073 17.4762 5.00306C17.3832 5.06506 17.254 5.09606 17.0887 5.09606C16.9027 5.09606 16.6753 4.9979 16.4067 4.80156C16.138 4.5949 15.7867 4.36756 15.3527 4.11956C14.9187 3.87156 14.3762 3.6494 13.7252 3.45306C13.0742 3.2464 12.2733 3.14306 11.3227 3.14306C10.1757 3.14306 9.12682 3.34456 8.17616 3.74756C7.22549 4.14023 6.40399 4.71373 5.71166 5.46806C5.02966 6.2224 4.49749 7.14206 4.11516 8.22706C3.73282 9.31206 3.54166 10.5366 3.54166 11.9006C3.54166 13.2852 3.73799 14.5201 4.13066 15.6051C4.53366 16.6901 5.07616 17.6097 5.75816 18.3641C6.45049 19.1081 7.26166 19.6764 8.19166 20.0691C9.13199 20.4617 10.1447 20.6581 11.2297 20.6581C11.891 20.6581 12.4852 20.6219 13.0122 20.5496C13.5495 20.4669 14.0403 20.3429 14.4847 20.1776C14.9393 20.0122 15.3578 19.8056 15.7402 19.5576C16.1328 19.2992 16.5203 18.9944 16.9027 18.6431C17.0783 18.4881 17.254 18.4106 17.4297 18.4106Z" fill="black"/>
</svg>
