<svg width="74" height="23" viewBox="0 0 74 23" fill="none" xmlns="http://www.w3.org/2000/svg">
<path d="M73.3985 11.9026C73.3985 13.5662 73.135 15.0801 72.608 16.4441C72.081 17.8081 71.337 18.9757 70.376 19.9471C69.415 20.9184 68.2576 21.6727 66.904 22.2101C65.5606 22.7371 64.0726 23.0006 62.44 23.0006H54.1475V0.789062H62.44C64.0726 0.789062 65.5606 1.05773 66.904 1.59506C68.2576 2.12206 69.415 2.8764 70.376 3.85806C71.337 4.8294 72.081 5.99706 72.608 7.36106C73.135 8.72506 73.3985 10.2389 73.3985 11.9026ZM70.314 11.9026C70.314 10.5386 70.128 9.31923 69.756 8.24456C69.384 7.1699 68.857 6.26056 68.175 5.51656C67.493 4.77256 66.6663 4.20423 65.695 3.81156C64.7236 3.4189 63.6386 3.22256 62.44 3.22256H57.1545V20.5671H62.44C63.6386 20.5671 64.7236 20.3707 65.695 19.9781C66.6663 19.5854 67.493 19.0222 68.175 18.2886C68.857 17.5446 69.384 16.6352 69.756 15.5606C70.128 14.4859 70.314 13.2666 70.314 11.9026Z" fill="black"/>
<path d="M49.9579 20.5516L49.9424 23.0006H36.2559V0.789062H49.9424V3.23806H39.2629V10.6161H47.9119V12.9721H39.2629V20.5516H49.9579Z" fill="black"/>
<path d="M32.0663 20.5516L32.0508 23.0006H18.3643V0.789062H32.0508V3.23806H21.3713V10.6161H30.0203V12.9721H21.3713V20.5516H32.0663Z" fill="black"/>
<path d="M3.84294 3.23806V11.0036H12.9724V13.4526H3.84294V23.0006H0.835938V0.789062H14.5224V3.23806H3.84294Z" fill="black"/>
</svg>
