<svg width="53" height="54" viewBox="0 0 53 54" fill="none" xmlns="http://www.w3.org/2000/svg">
<path d="M26.5 0C11.8609 0 0 12.0847 0 27C0 41.9153 11.8609 54 26.5 54C41.1391 54 53 41.9153 53 27C53 12.0847 41.1391 0 26.5 0ZM26.5 10.4516C31.6931 10.4516 35.9032 14.7411 35.9032 20.0323C35.9032 25.3234 31.6931 29.6129 26.5 29.6129C21.3069 29.6129 17.0968 25.3234 17.0968 20.0323C17.0968 14.7411 21.3069 10.4516 26.5 10.4516ZM26.5 47.9032C20.2276 47.9032 14.6071 45.0073 10.8458 40.4782C12.8546 36.6242 16.7869 33.9677 21.371 33.9677C21.6274 33.9677 21.8839 34.0113 22.1296 34.0875C23.5188 34.5448 24.972 34.8387 26.5 34.8387C28.028 34.8387 29.4919 34.5448 30.8704 34.0875C31.1161 34.0113 31.3726 33.9677 31.629 33.9677C36.2131 33.9677 40.1454 36.6242 42.1542 40.4782C38.3929 45.0073 32.7724 47.9032 26.5 47.9032Z" fill="black"/>
</svg>
