<svg width="131" height="24" viewBox="0 0 131 24" fill="none" xmlns="http://www.w3.org/2000/svg">
<path d="M130.334 20.5516L130.318 23.0006H116.632V0.789062H130.318V3.23806H119.639V10.6161H128.288V12.9721H119.639V20.5516H130.334Z" fill="black"/>
<path d="M103.35 11.5461C104.218 11.5461 104.982 11.4427 105.644 11.2361C106.315 11.0191 106.873 10.7194 107.318 10.3371C107.772 9.9444 108.113 9.4794 108.341 8.94206C108.568 8.40473 108.682 7.81056 108.682 7.15956C108.682 5.83689 108.248 4.83973 107.38 4.16806C106.512 3.4964 105.21 3.16056 103.474 3.16056H100.188V11.5461H103.35ZM113.611 23.0006H110.945C110.397 23.0006 109.994 22.7887 109.736 22.3651L103.97 14.4291C103.794 14.1811 103.603 14.0054 103.396 13.9021C103.2 13.7884 102.89 13.7316 102.466 13.7316H100.188V23.0006H97.1963V0.789062H103.474C104.879 0.789062 106.093 0.933729 107.116 1.22306C108.139 1.50206 108.981 1.91023 109.643 2.44756C110.314 2.9849 110.81 3.6359 111.131 4.40056C111.451 5.1549 111.611 6.00223 111.611 6.94256C111.611 7.7279 111.487 8.46156 111.239 9.14356C110.991 9.82556 110.63 10.4404 110.154 10.9881C109.689 11.5254 109.116 11.9852 108.434 12.3676C107.762 12.7499 106.997 13.0392 106.14 13.2356C106.522 13.4526 106.853 13.7677 107.132 14.1811L113.611 23.0006Z" fill="black"/>
<path d="M92.8937 11.9006C92.8937 13.5642 92.6302 15.0936 92.1032 16.4886C91.5762 17.8732 90.8322 19.0667 89.8712 20.0691C88.9102 21.0714 87.7529 21.8516 86.3992 22.4096C85.0559 22.9572 83.5679 23.2311 81.9352 23.2311C80.3025 23.2311 78.8145 22.9572 77.4712 22.4096C76.1279 21.8516 74.9757 21.0714 74.0147 20.0691C73.0537 19.0667 72.3097 17.8732 71.7827 16.4886C71.2557 15.0936 70.9922 13.5642 70.9922 11.9006C70.9922 10.2369 71.2557 8.71273 71.7827 7.32806C72.3097 5.93306 73.0537 4.7344 74.0147 3.73206C74.9757 2.7194 76.1279 1.93406 77.4712 1.37606C78.8145 0.818063 80.3025 0.539062 81.9352 0.539062C83.5679 0.539062 85.0559 0.818063 86.3992 1.37606C87.7529 1.93406 88.9102 2.7194 89.8712 3.73206C90.8322 4.7344 91.5762 5.93306 92.1032 7.32806C92.6302 8.71273 92.8937 10.2369 92.8937 11.9006ZM89.8092 11.9006C89.8092 10.5366 89.6232 9.31206 89.2512 8.22706C88.8792 7.14206 88.3522 6.22756 87.6702 5.48357C86.9882 4.72923 86.1615 4.15056 85.1902 3.74756C84.2189 3.34456 83.1339 3.14306 81.9352 3.14306C80.7469 3.14306 79.667 3.34456 78.6957 3.74756C77.7244 4.15056 76.8925 4.72923 76.2002 5.48357C75.5182 6.22756 74.9912 7.14206 74.6192 8.22706C74.2472 9.31206 74.0612 10.5366 74.0612 11.9006C74.0612 13.2646 74.2472 14.4891 74.6192 15.5741C74.9912 16.6487 75.5182 17.5632 76.2002 18.3176C76.8925 19.0616 77.7244 19.6351 78.6957 20.0381C79.667 20.4307 80.7469 20.6271 81.9352 20.6271C83.1339 20.6271 84.2189 20.4307 85.1902 20.0381C86.1615 19.6351 86.9882 19.0616 87.6702 18.3176C88.3522 17.5632 88.8792 16.6487 89.2512 15.5741C89.6232 14.4891 89.8092 13.2646 89.8092 11.9006Z" fill="black"/>
<path d="M70.079 20.4741V23.0006H57.4775V0.789062H60.469V20.4741H70.079Z" fill="black"/>
<path d="M45.4159 12.3056C46.2735 12.3056 47.0279 12.1919 47.6789 11.9646C48.3402 11.7372 48.893 11.4221 49.3374 11.0191C49.792 10.6057 50.133 10.1149 50.3604 9.54656C50.5877 8.97823 50.7014 8.35306 50.7014 7.67106C50.7014 6.2554 50.2622 5.14973 49.3839 4.35406C48.5159 3.5584 47.1932 3.16056 45.4159 3.16056H41.8509V12.3056H45.4159ZM45.4159 0.789062C46.8212 0.789062 48.0405 0.954396 49.0739 1.28506C50.1175 1.6054 50.9804 2.06523 51.6624 2.66456C52.3444 3.2639 52.8507 3.98723 53.1814 4.83456C53.5224 5.6819 53.6929 6.6274 53.6929 7.67106C53.6929 8.7044 53.512 9.6499 53.1504 10.5076C52.7887 11.3652 52.2565 12.1041 51.5539 12.7241C50.8615 13.3441 49.9987 13.8297 48.9654 14.1811C47.9424 14.5221 46.7592 14.6926 45.4159 14.6926H41.8509V23.0006H38.8594V0.789062H45.4159Z" fill="black"/>
<path d="M35.6692 23.0006H32.6932C32.4658 23.0006 32.285 22.9437 32.1507 22.8301C32.0267 22.7061 31.9233 22.5717 31.8407 22.4271L25.8887 13.0961C25.806 13.3441 25.713 13.5559 25.6097 13.7316L19.8127 22.4271C19.7093 22.5717 19.5957 22.7061 19.4717 22.8301C19.358 22.9437 19.1978 23.0006 18.9912 23.0006H16.2012L23.8427 11.5926L16.5112 0.789062H19.5027C19.7197 0.789062 19.8798 0.825229 19.9832 0.897562C20.0865 0.969896 20.1795 1.07323 20.2622 1.20756L26.0592 10.1046C26.1315 9.88756 26.24 9.6499 26.3847 9.39156L31.8562 1.26956C31.9388 1.1249 32.037 1.01123 32.1507 0.928563C32.2643 0.835562 32.3987 0.789062 32.5537 0.789062H35.4212L28.0587 11.4531L35.6692 23.0006Z" fill="black"/>
<path d="M14.5379 20.5516L14.5224 23.0006H0.835938V0.789062H14.5224V3.23806H3.84294V10.6161H12.4919V12.9721H3.84294V20.5516H14.5379Z" fill="black"/>
</svg>
