<svg width="53" height="53" viewBox="0 0 53 53" fill="none" xmlns="http://www.w3.org/2000/svg">
<path d="M52.2792 45.8219L41.958 35.5024C41.4921 35.0366 40.8606 34.7779 40.1981 34.7779H38.5106C41.3679 31.1241 43.0657 26.5285 43.0657 21.5291C43.0657 9.63636 33.4276 0 21.5328 0C9.63801 0 0 9.63636 0 21.5291C0 33.4219 9.63801 43.0583 21.5328 43.0583C26.533 43.0583 31.1294 41.3608 34.7838 38.5041V40.1912C34.7838 40.8536 35.0426 41.485 35.5085 41.9508L45.8297 52.2703C46.8028 53.2432 48.3764 53.2432 49.3392 52.2703L52.2689 49.3411C53.242 48.3681 53.242 46.7948 52.2792 45.8219ZM21.5328 34.7779C14.2137 34.7779 8.28186 28.8573 8.28186 21.5291C8.28186 14.2113 14.2034 8.28044 21.5328 8.28044C28.8519 8.28044 34.7838 14.201 34.7838 21.5291C34.7838 28.847 28.8623 34.7779 21.5328 34.7779Z" fill="white"/>
</svg>
