<svg width="53" height="53" viewBox="0 0 53 53" fill="none" xmlns="http://www.w3.org/2000/svg">
<path d="M48.1818 42.9048V45.4286H4.81818V42.9048L9.63636 37.8571V22.7143C9.63636 14.8905 14.5268 8.00048 21.6818 5.77952C21.6818 5.52714 21.6818 5.3 21.6818 5.04762C21.6818 3.70891 22.1894 2.42503 23.093 1.47841C23.9966 0.531801 25.2221 0 26.5 0C27.7779 0 29.0034 0.531801 29.907 1.47841C30.8106 2.42503 31.3182 3.70891 31.3182 5.04762C31.3182 5.3 31.3182 5.52714 31.3182 5.77952C38.4732 8.00048 43.3636 14.8905 43.3636 22.7143V37.8571L48.1818 42.9048ZM31.3182 47.9524C31.3182 49.2911 30.8106 50.575 29.907 51.5216C29.0034 52.4682 27.7779 53 26.5 53C25.2221 53 23.9966 52.4682 23.093 51.5216C22.1894 50.575 21.6818 49.2911 21.6818 47.9524M45.1705 3.00333L41.7495 6.58714C45.8691 10.8524 48.1818 16.6571 48.1818 22.7143H53C53 15.3195 50.2055 8.20238 45.1705 3.00333ZM0 22.7143H4.81818C4.81818 16.6571 7.13091 10.8524 11.2505 6.58714L7.82955 3.00333C2.79455 8.20238 0 15.3195 0 22.7143Z" fill="black"/>
</svg>
